<?xml version="1.0" encoding="UTF-8"?>
<svg width="40" height="40" viewBox="0 0 40 40" xmlns="http://www.w3.org/2000/svg">
  <g fill="none" fill-rule="evenodd">
    <path d="M20,0 C31.0457,0 40,8.9543 40,20 C40,31.0457 31.0457,40 20,40 C8.9543,40 0,31.0457 0,20 C0,8.9543 8.9543,0 20,0 Z" fill="#7B2CBF"/>
    <path d="M20,5 C28.2843,5 35,11.7157 35,20 C35,28.2843 28.2843,35 20,35 C11.7157,35 5,28.2843 5,20 C5,11.7157 11.7157,5 20,5 Z" fill="#9D4EDD"/>
    <path d="M20,10 C25.5228,10 30,14.4772 30,20 C30,25.5228 25.5228,30 20,30 C14.4772,30 10,25.5228 10,20 C10,14.4772 14.4772,10 20,10 Z" fill="#FFFFFF"/>
    <path d="M20,15 C22.7614,15 25,17.2386 25,20 C25,22.7614 22.7614,25 20,25 C17.2386,25 15,22.7614 15,20 C15,17.2386 17.2386,15 20,15 Z" fill="#7B2CBF"/>
    <path d="M30,15 C30,15 25,25 20,30 C15,25 10,15 10,15 C10,15 15,10 20,10 C25,10 30,15 30,15 Z" fill="#9D4EDD" opacity="0.5"/>
  </g>
</svg>
